<svg width="14" height="14" viewBox="0 0 14 14" fill="none" xmlns="http://www.w3.org/2000/svg">
<path d="M7.83299 12.5105L7.83299 3.57454L11.737 7.47855C12.049 7.79055 12.561 7.79055 12.873 7.47855C13.185 7.16655 13.185 6.66255 12.873 6.35055L7.60099 1.07854C7.28899 0.766544 6.78499 0.766544 6.47299 1.07854L1.19298 6.34255C0.880984 6.65455 0.880984 7.15855 1.19298 7.47055C1.50498 7.78255 2.00898 7.78255 2.32098 7.47055L6.23299 3.57454L6.23299 12.5105C6.23299 12.9505 6.59299 13.3105 7.03299 13.3105C7.47299 13.3105 7.83299 12.9505 7.83299 12.5105Z" fill="url(#paint0_linear_1238_1751)"/>
<defs>
<linearGradient id="paint0_linear_1238_1751" x1="13.107" y1="0.844544" x2="10.6249" y2="15.0048" gradientUnits="userSpaceOnUse">
<stop stop-color="#00796D"/>
<stop offset="1" stop-color="#0DC99E"/>
</linearGradient>
</defs>
</svg>
