<svg width="74" height="74" viewBox="0 0 74 74" fill="none" xmlns="http://www.w3.org/2000/svg">
<g clip-path="url(#clip0_302_738)">
<path d="M37.0003 26.5834C38.1509 26.5834 39.0837 25.6506 39.0837 24.5C39.0837 23.3494 38.1509 22.4167 37.0003 22.4167C35.8497 22.4167 34.917 23.3494 34.917 24.5C34.917 25.6506 35.8497 26.5834 37.0003 26.5834Z" fill="url(#paint0_linear_302_738)"/>
<circle cx="37" cy="37" r="37" fill="#FCE8EF"/>
<path d="M24.5 47.4167H49.5V51.5834H24.5V47.4167ZM32.8333 36.6459L38.65 42.4667L46.8417 34.2688L49.5 37V28.6667H41.1667L43.8958 31.3229L38.6479 36.5709L32.8333 30.75L24.5 39.0834L27.4458 42.0292L32.8333 36.6459Z" fill="#5C5C5C"/>
<path d="M51.5837 18.25H44.7128C44.5083 17.942 44.2857 17.6463 44.0462 17.3646L44.0253 17.3396C42.4946 15.5568 40.3411 14.4256 38.0045 14.1771C37.341 14.0508 36.6596 14.0508 35.9962 14.1771C33.6596 14.4256 31.506 15.5568 29.9753 17.3396L29.9545 17.3646C29.7151 17.6456 29.4924 17.9406 29.2878 18.2479L22.417 18.25C20.7599 18.2517 19.1711 18.9107 17.9994 20.0824C16.8277 21.2542 16.1686 22.8429 16.167 24.5V53.6667C16.1686 55.3238 16.8277 56.9125 17.9994 58.0843C19.1711 59.256 20.7599 59.915 22.417 59.9167H51.5837C53.2408 59.915 54.8295 59.256 56.0013 58.0843C57.173 56.9125 57.832 55.3238 57.8337 53.6667V24.5C57.832 22.8429 57.173 21.2542 56.0013 20.0824C54.8295 18.9107 53.2408 18.2517 51.5837 18.25ZM53.667 53.6667C53.667 54.2192 53.4475 54.7491 53.0568 55.1398C52.6661 55.5305 52.1362 55.75 51.5837 55.75H22.417C21.8646 55.7494 21.335 55.5298 20.9445 55.1392C20.5539 54.7486 20.3342 54.219 20.3337 53.6667V24.5C20.3342 23.9476 20.5539 23.4181 20.9445 23.0275C21.335 22.6369 21.8646 22.4172 22.417 22.4167H31.8962C32.1352 21.2393 32.774 20.1808 33.7042 19.4204C34.6344 18.6601 35.7989 18.2448 37.0003 18.2448C38.2017 18.2448 39.3662 18.6601 40.2964 19.4204C41.2267 20.1808 41.8654 21.2393 42.1045 22.4167H51.5837C52.136 22.4172 52.6656 22.6369 53.0562 23.0275C53.4468 23.4181 53.6664 23.9476 53.667 24.5V53.6667Z" fill="#5C5C5C"/>
</g>
<defs>
<linearGradient id="paint0_linear_302_738" x1="39.0837" y1="26.5834" x2="34.3436" y2="25.7737" gradientUnits="userSpaceOnUse">
<stop stop-color="#00796D"/>
<stop offset="1" stop-color="#0DC99E"/>
</linearGradient>
<clipPath id="clip0_302_738">
<rect width="74" height="74" fill="white"/>
</clipPath>
</defs>
</svg>
